<?xml version="1.0" standalone="no"?>
<!DOCTYPE svg PUBLIC "-//W3C//DTD SVG 1.1//EN" "http://www.w3.org/Graphics/SVG/1.1/DTD/svg11.dtd" >
<!--
2013-9-30: Created.
-->
<svg>
<metadata>
Created by iconfont
</metadata>
<defs>

<font id="iconfont" horiz-adv-x="1024" >
  <font-face
    font-family="iconfont"
    font-weight="500"
    font-stretch="normal"
    units-per-em="1024"
    ascent="896"
    descent="-128"
  />
    <missing-glyph />
    
    <glyph glyph-name="meishi1" unicode="&#58988;" d="M310.41611852 729.52035555c-78.88592592 0-137.74696297-105.58577778-137.74696297-200.00616296 0-94.54174815 56.6765037-141.38785185 118.3288889-149.51917037V24.765629630000035c0-10.8013037 8.73813333-19.53943703 19.53943703-19.53943704 10.8013037 0 19.53943703 8.73813333 19.53943704 19.53943704V379.99502222c61.65238518 8.13131852 118.32888889 54.97742222 118.32888889 149.51917037-0.24272592 94.42038518-59.10376297 200.00616297-137.98968889 200.00616296z m0-312.14554073c-60.92420741 0-98.78945185 42.96248889-98.78945185 112.13937777 0 81.19182222 48.90927408 160.92728889 98.78945185 160.92728889s98.78945185-79.73546667 98.78945185-160.92728889c0-69.17688889-37.86524445-112.13937778-98.78945185-112.13937777zM782.27531852 729.52035555c-10.8013037 0-19.53943703-8.73813333-19.53943704-19.53943703v-204.4965926c0-44.29748148-33.01072592-80.70637037-75.60912593-86.89588147V709.9809185199999c0 10.8013037-8.73813333 19.53943703-19.53943703 19.53943703s-19.53943703-8.73813333-19.53943704-19.53943703v-291.39247407c-42.5984 6.18951111-75.60912592 42.5984-75.60912593 86.89588147V709.9809185199999c0 10.8013037-8.73813333 19.53943703-19.53943703 19.53943703s-19.53943703-8.73813333-19.53943704-19.53943703v-204.4965926c0-65.77872592 50.48699259-119.54251852 114.56663704-125.85339259V24.765629630000035c0-10.8013037 8.73813333-19.53943703 19.53943703-19.53943704s19.53943703 8.73813333 19.53943704 19.53943704V379.63093332999995c64.20100741 6.43223703 114.56663703 60.07466667 114.56663704 125.85339259V709.9809185199999c0.24272592 10.8013037-8.49540741 19.53943703-19.29671111 19.53943703z"  horiz-adv-x="1024" />

    
    <glyph glyph-name="jiudian" unicode="&#58949;" d="M249.344 121.344h381.952V646.656H249.344v-525.312zM153.6 742.4h573.44v-716.8H153.6V742.4zM725.504 549.376v-428.032h49.152V549.376h-49.152zM629.76 645.12h240.64v-619.52h-240.64V645.12zM361.71264 431.78496H512V527.36H361.71264zM361.71264 216.74496H512V312.32H361.71264z"  horiz-adv-x="1024" />

    
    <glyph glyph-name="jiudian1" unicode="&#58927;" d="M160 300h706v-288H160zM246 808h534c11.046 0 20-8.954 20-20v-776H226V788C226 799.046 234.954 808 246 808zM288 748m8 0l104 0q8 0 8-8l0-108q0-8-8-8l-104 0q-8 0-8 8l0 108q0 8 8 8ZM288 596m8 0l104 0q8 0 8-8l0-108q0-8-8-8l-104 0q-8 0-8 8l0 108q0 8 8 8ZM288 444m8 0l104 0q8 0 8-8l0-108q0-8-8-8l-104 0q-8 0-8 8l0 108q0 8 8 8ZM454 748m8 0l104 0q8 0 8-8l0-108q0-8-8-8l-104 0q-8 0-8 8l0 108q0 8 8 8ZM454 596m8 0l104 0q8 0 8-8l0-108q0-8-8-8l-104 0q-8 0-8 8l0 108q0 8 8 8ZM454 444m8 0l104 0q8 0 8-8l0-108q0-8-8-8l-104 0q-8 0-8 8l0 108q0 8 8 8ZM620 750m8 0l104 0q8 0 8-8l0-108q0-8-8-8l-104 0q-8 0-8 8l0 108q0 8 8 8ZM620 598m8 0l104 0q8 0 8-8l0-108q0-8-8-8l-104 0q-8 0-8 8l0 108q0 8 8 8ZM620 446m8 0l104 0q8 0 8-8l0-108q0-8-8-8l-104 0q-8 0-8 8l0 108q0 8 8 8ZM376 268m8 0l114 0q8 0 8-8l0-240q0-8-8-8l-114 0q-8 0-8 8l0 240q0 8 8 8ZM520 268m8 0l114 0q8 0 8-8l0-240q0-8-8-8l-114 0q-8 0-8 8l0 240q0 8 8 8ZM88-40h848v52H88zM672 268m8 0l68 0q8 0 8-8l0-58q0-8-8-8l-68 0q-8 0-8 8l0 58q0 8 8 8ZM268 268m8 0l68 0q8 0 8-8l0-58q0-8-8-8l-68 0q-8 0-8 8l0 58q0 8 8 8Z"  horiz-adv-x="1024" />

    
    <glyph glyph-name="haoyou" unicode="&#58917;" d="M547.916342 350.31576C566.695498 360.593712 584.143114 373.46215 599.777062 388.754109 644.32311 432.322835 668.855718 490.250537 668.855718 551.865636 668.855718 613.480735 644.32311 671.40945 599.777062 714.978175 555.229981 758.546901 496.002854 782.541271 433.005622 782.541271 370.00839 782.541271 310.780231 758.5469 266.234182 714.978175 221.687099 671.40945 197.154492 613.481747 197.154492 551.865636 197.154492 490.249526 221.687099 432.321821 266.234182 388.754109 281.868132 373.463162 299.315748 360.593712 318.094904 350.316771 167.671292 306.547686 52.528819 179.004739 33.058547 19.970189 31.359721 6.097936 41.481284-6.49425 55.665749-8.155802 69.852284-9.821405 82.723831 0.082144 84.422657 13.954394 105.507951 186.180179 255.366668 316.055578 433.005622 316.055578 610.644576 316.055578 760.503293 186.180179 781.589622 13.954394 783.163261 1.103158 794.327709-8.337949 807.238573-8.337949 808.263866-8.336934 809.301578-8.277232 810.346531-8.154794 824.529962-6.493238 834.65049 6.098947 832.952698 19.9712 813.481392 179.004739 698.338918 306.547686 547.916342 350.31576L547.916342 350.31576ZM248.884853 551.865636C248.884853 651.162177 331.480651 731.945854 433.004589 731.945854 534.528525 731.945854 617.12432 651.162176 617.12432 551.865636 617.12432 452.569098 534.528525 371.785418 433.004589 371.785418 331.480651 371.785418 248.884853 452.569094 248.884853 551.865636L248.884853 551.865636ZM996.916214 19.970189C986.797757 102.625898 954.486973 181.657962 903.478768 248.525875 860.722592 304.575478 805.818054 350.886477 743.258461 383.967782 764.871405 402.416896 783.314314 424.352032 797.555683 448.791642 819.404518 486.287904 830.953837 529.043056 830.953837 572.432672 830.953837 619.94278 817.267018 666.174848 791.371834 706.130048 766.188461 744.987328 730.629011 776.291725 688.53912 796.658403 675.73896 802.853306 660.220886 797.725966 653.887021 785.201577 647.552122 772.679211 652.796544 757.504634 665.599808 751.308719 699.1904 735.055447 727.571744 710.065359 747.679338 679.041261 768.314576 647.200554 779.222442 610.33471 779.222442 572.431659 779.222442 537.811239 770.01961 503.720047 752.610275 473.842442 735.707898 444.835078 711.415318 420.217373 682.359411 402.650643 670.207949 395.304189 666.446115 379.71473 673.957363 367.830877 675.17096 365.911286 676.604925 364.207235 678.206496 362.726813 680.823018 358.89168 684.537258 355.706192 689.159885 353.687437 757.39016 323.894832 817.163558 277.066749 862.014813 218.268803 907.620301 158.484246 936.506534 87.83281 945.552106 13.952368 947.125741 1.101133 958.290189-8.339971 971.201053-8.339971 972.226346-8.339971 973.264058-8.279258 974.309011-8.156816 988.493478-6.49425 998.614006 6.097936 996.916214 19.970189L996.916214 19.970189Z"  horiz-adv-x="1024" />

    
    <glyph glyph-name="haoyouliebiao" unicode="&#58918;" d="M583 87.8c-5.7 76.4-39.1 147.8-95.4 203.1C447.7 330 399.1 358.3 346 374c47.2 30.8 78.3 82.7 78.3 141.5 0 94.3-80 171-178.2 171-98.3 0-178.2-76.7-178.2-171s80-171 178.2-171c6.8 0 13.5 0.4 20.1 1.1 2.4-1.2 5.1-1.9 7.9-2.2 140.6-13 253.3-123.8 263.6-259.1 0.9-11.4 10.8-20.1 22.7-20.1 13.2 0.1 23.5 10.9 22.6 23.6zM113.3 515.5c0 70.2 59.5 127.3 132.7 127.3 73.2 0 132.7-57.1 132.7-127.3S319.2 388.2 246 388.2c-73.1 0-132.7 57.1-132.7 127.3zM270.4 249H90.6c-12.6 0-22.7 9.8-22.7 21.8 0 12.1 10.2 21.8 22.7 21.8h179.7c12.6 0 22.7-9.8 22.7-21.8 0.1-12.1-10.1-21.8-22.6-21.8zM270.4 158.6H90.6c-12.6 0-22.7 9.8-22.7 21.8 0 12.1 10.2 21.8 22.7 21.8h179.7c12.6 0 22.7-9.8 22.7-21.8 0.1-12-10.1-21.8-22.6-21.8zM270.3 70.2H90.6c-12.6 0-22.7 9.8-22.7 21.8 0 12.1 10.2 21.8 22.7 21.8h179.7c12.6 0 22.7-9.8 22.7-21.8 0-12.1-10.2-21.8-22.7-21.8zM939.2 68.2c-12.1 0-22.1 9.1-22.9 20.7-2.3 32.9-10.3 64.8-23.6 95.1-15.6 35.4-38 67.2-66.5 94.6-28.5 27.3-61.6 48.8-98.6 63.8l-0.3 0.1c-13 5.2-22.2 16.3-24.8 29.5-2.6 13.2 1.9 26.8 11.9 36.2 29.9 28 46.4 65.4 46.4 105.4 0 74.7-58.3 136.5-133.5 146-11.4 1.4-20 10.8-20 21.9 0 13.3 12.2 23.6 25.9 21.9 97.8-12.2 173.5-92.7 173.5-189.7 0-41-13.3-80-38.1-112.4-8.2-10.7-4.6-25.9 7.6-32.2 30.2-15.7 57.8-35.4 82.4-59 32.7-31.4 58.4-67.9 76.3-108.6 15.4-35 24.5-71.7 27.2-109.5 1-13-9.6-23.8-22.9-23.8zM756 64.3c-12.1 0-22.1 9.1-22.9 20.7-2.3 32.9-10.3 64.8-23.6 95.1-15.6 35.4-38 67.2-66.5 94.6-28.5 27.3-61.6 48.8-98.6 63.8l-0.3 0.1c-13 5.2-22.2 16.3-24.8 29.5-2.6 13.2 1.9 26.8 11.9 36.2 29.9 28 46.4 65.4 46.4 105.4 0 74.7-58.3 136.5-133.5 146-11.4 1.4-20 10.8-20 21.9 0 13.3 12.2 23.6 25.9 21.9 97.8-12.2 173.5-92.7 173.5-189.7 0-41-13.3-80-38.1-112.4-8.2-10.7-4.6-25.9 7.6-32.2 30.2-15.7 57.8-35.4 82.4-59 32.7-31.4 58.4-67.9 76.3-108.6 15.4-35 24.5-71.7 27.2-109.5 1-13.1-9.6-23.8-22.9-23.8z"  horiz-adv-x="1024" />

    
    <glyph glyph-name="jiahaoyou" unicode="&#59111;" d="M411.1 429.8c77.1 0 139.6 61.2 139.6 136.7V612c0 75.5-62.5 136.7-139.6 136.7S271.5 687.5 271.5 612v-45.5c0-75.5 62.5-136.7 139.6-136.7z m228.8-123.5C568.8 334.5 491.7 350 411.1 350c-80.5 0-157.4-15.5-228.4-43.6-41.5-19.1-70.7-62-70.7-112.4v-56.2c0-37.1 23.8-68.3 56.2-78.5C246.3 41 327.6 31 411.1 31c83.4 0 164.6 10 242.6 28.4 32.6 10.1 56.5 41.2 56.5 78.6v56.2c0 50.1-28.9 93-70.3 112.1z m170 223.2v99.7H750v-99.7h-99.7v-59.8H750V370h59.8v99.7h99.7v59.8h-99.6z"  horiz-adv-x="1024" />

    
    <glyph glyph-name="haoyou1" unicode="&#59113;" d="M383.8 431.7c70.1 0 126.7 55.6 126.7 124.2v41.4c0 68.5-56.8 124.2-126.7 124.2-70.1 0-126.7-55.6-126.7-124.2v-41.4c-0.2-68.6 56.6-124.2 126.7-124.2z m316.9-0.2c55.2 0 99.8 45.2 99.8 101v33.7c0 55.8-44.7 101-99.8 101-55.1 0-99.8-45.2-99.8-101v-33.7c-0.1-55.8 44.7-101 99.8-101z m161.6-84c-47.4 19.3-98.8 29.8-152.5 29.8-25.2 0-49.9-2.5-73.8-7 3.8-1.3 7.5-2.5 11.2-3.9 47.6-20.7 80.8-67 80.8-121.2v-84.8c49.2 1.3 97.2 7.6 143.5 18.8 21.7 6.9 37.6 28.1 37.6 53.4V271c-0.1 34.3-19.4 63.5-46.8 76.5z m-270.7-27.9C527 345.2 457 359.3 383.8 359.3c-73.1 0-143.1-14.1-207.6-39.6-37.7-17.3-64.2-56.4-64.2-102.2v-51c0-33.8 21.5-62.1 51-71.3 71-16.7 144.8-25.9 220.7-25.9 75.7 0 149.5 9 220.4 25.8 29.6 9.1 51.3 37.5 51.3 71.4v51c0 45.7-26.3 84.6-63.8 102.1z"  horiz-adv-x="1024" />

    
    <glyph glyph-name="haoyoufenxiang" unicode="&#58946;" d="M931.5 357.9c-15.7 0-28.5-12.8-28.5-28.5v-216c0-66.3-53.9-120.2-120.2-120.2H241.3c-66.3 0-120.2 53.9-120.2 120.2V654.7c0 66.3 53.9 120.2 120.2 120.2h208.6c15.7 0 28.5 12.8 28.5 28.5S465.7 832 449.9 832H241.3C143.5 832 64 752.5 64 654.7v-541.4C64 15.5 143.5-64 241.3-64h541.4c97.8 0 177.3 79.5 177.3 177.3v216c0 15.8-12.8 28.6-28.5 28.6zM957.6 783.8c-1.3 26.6-23.9 47.1-50.5 45.9H648.8c-26.6-0.1-48.2-21.6-48.5-48.2 0-26.6 21.6-48.2 48.2-48.2H792L521.7 463c-10.3-10.4-16.8-23.9-18.6-38.5-0.6-4.1-0.7-8.4-0.1-12.5 3.3-23.4 24.9-39.7 48.3-36.5 15.1 1.5 29.1 8.6 39.2 19.8L860 665v-138.2c0-26.6 21.6-48.2 48.2-48.2v-0.4h1.2c26.1 0.2 47 21.4 46.9 47.5V769.6c1 4.5 1.6 9.3 1.3 14.2z"  horiz-adv-x="1024" />

    
    <glyph glyph-name="jiahaoyou1" unicode="&#58890;" d="M1025.552516-100.153806a529.70529 529.70529 0 0 1-1025.552516 0h1025.552516z m11.230968 583.97729V644.789677a41.191226 41.191226 0 0 0 82.349419 0v-160.966193h160.966194a41.191226 41.191226 0 0 0 0-82.349419H1119.132903v-160.966194a41.191226 41.191226 0 0 0-82.349419 0v160.966194h-160.966194a41.191226 41.191226 0 0 0 0 82.349419h160.966194zM512.759742 895.636645a239.715097 239.715097 0 0 0 239.616-239.616 239.715097 239.715097 0 0 0-239.616-239.582968A239.682065 239.682065 0 0 0 273.176774 656.020645 239.715097 239.715097 0 0 0 512.759742 895.636645z"  horiz-adv-x="1321" />

    
    <glyph glyph-name="yule" unicode="&#58888;" d="M690.454 203.042c-15.982 61.615-2.529 119.111 40.362 172.483 42.891 53.37 101.332 87.858 175.323 103.464-26.072 91.11-76.305 165.736-150.703 223.885-74.397 58.146-159.115 87.22-254.151 87.22-22.71 0-45.418-1.955-68.129-5.872-22.71-3.917-44.355-9.347-64.94-16.287-20.583-6.94-40.549-15.62-59.895-26.033a462.73 462.73 0 0 1-55.497-35.155 368.116 368.116 0 0 1-49.2-43.61c-15.147-16.052-29.017-32.977-41.61-50.78-12.593-17.797-24.15-36.664-34.671-56.602-10.52-19.938-19.144-40.54-25.87-61.815-6.725-21.271-11.985-43.61-15.78-67.017C81.898 403.514 80 380.08 80 356.611c0-46.872 7.145-92.428 21.433-136.663C115.72 175.716 135.9 135.8 161.975 100.2c26.072-35.6 56.342-66.618 90.81-93.053 34.47-26.435 73.146-47.04 116.037-61.812 42.889-14.774 87.03-22.147 132.422-22.121 63.904 0 123.612 13.665 179.119 40.991 55.51 27.321 103.014 64.851 142.513 112.583-71.464 21.692-115.605 63.771-132.422 126.252v0.003z m-189.21-16.953c-45.418 0-84.313 16.702-116.682 50.11-32.37 33.404-48.554 73.545-48.554 120.417 0 31.24 7.357 59.883 22.078 85.931 14.72 26.049 34.898 46.652 60.54 61.815 25.641 15.16 53.182 22.756 82.618 22.785 46.252 0 85.564-16.702 117.936-50.11 32.372-33.404 48.557-73.546 48.554-120.42 0-31.238-7.36-59.883-22.078-85.929-14.72-26.048-34.898-46.654-60.543-61.815-25.641-15.16-53.597-22.756-83.867-22.784h-0.002zM1104 648.186c-11.786 24.297-24.405 46.636-37.858 67.02-13.453 20.38-27.124 37.082-41.007 50.107-13.883 13.026-27.968 24.52-42.259 34.49-14.285 9.968-28.158 17.561-41.61 22.786-13.454 5.223-26.275 9.565-38.463 13.033-12.188 3.47-23.327 5.428-33.419 5.873-10.092 0.448-18.916 0.671-26.478 0.668-7.56-0.002-13.451-0.435-17.675-1.29h-6.298l-65.586 3.914c36.998-49.457 68.948-96.316 95.856-140.58 26.906-44.26 47.505-82.013 61.79-113.254 14.287-31.237 25.843-59.23 34.67-83.97 8.827-24.74 14.086-45.788 15.78-63.143 1.695-17.357 2.328-30.588 1.898-39.696-0.428-9.106-1.478-16.702-3.147-22.787-33.634 17.357-71.049 20.396-112.243 9.124-38.692-11.275-68.75-32.533-90.167-63.769-21.415-31.24-27.928-62.908-19.533-95.01s29.207-55.746 62.437-70.937c33.232-15.189 69.18-17.145 107.844-5.873 19.347 6.083 37.009 14.981 52.993 26.701 15.983 11.718 28.804 24.948 38.463 39.694s21.658 30.795 25.022 48.15c31.266 87.218 16.36 194.81-73.617 373.583l-45.405 83.304L1104 648.186zM501.244 449.042c-15.983 0-30.903-4.124-44.76-12.37-13.855-8.246-24.794-19.536-32.812-33.865-8.021-14.33-12.015-29.727-11.987-46.193 0-25.158 8.825-46.86 26.476-65.102 17.652-18.246 38.88-27.352 63.69-27.326 24.806 0.028 45.834 9.137 63.082 27.326 17.247 18.189 25.871 39.888 25.869 65.102 0 25.214-8.622 46.913-25.87 65.102-17.247 18.19-38.474 27.298-63.688 27.326z"  horiz-adv-x="1104" />

    
    <glyph glyph-name="jingdian" unicode="&#60245;" d="M240 448h560v-112H240zM840.976 547.904s-15.6 5.712-38.224 35.248c-22.624 29.536-21.136 64.208-21.136 64.208-1.888 17.6-16.992 31.712-34.672 31.648l-450.496-1.52c-17.696-0.064-33.856-14.336-36.144-31.904 0 0-0.528-15.424-9.6-45.232-9.056-29.808-0.64-1.616-0.96-2.432-14.72-36.608-37.472-49.648-37.472-49.648-13.104-11.52-10.24-20.336 7.376-20.256l616.464 2.576c17.664 0.064 19.792 7.824 4.864 17.312zM533.664 112c-48.976 0-88.864-39.68-88.864-88.64v-78.736h177.744V23.36A88.688 88.688 0 0 1 533.664 112zM433.872 435.696h32v-68.928h-32zM537.552 435.696h32v-68.928h-32zM202.24 227.76h32v-276.848h-32zM787.2 227.76h32v-276.848h-32zM511.264 128c-57.84 0-104.864-46.864-104.864-104.64v-78.736h32V23.36c0 40.064 32.672 72.64 72.864 72.64a72.672 72.672 0 0 0 72.864-72.64v-78.736h32V23.36c0.016 57.888-46.912 104.64-104.864 104.64zM926.72 203.968a16 16 0 0 1 0 32c-58.96 0-104.96 31.888-104.96 67.856V443.28l89.488 63.856c5.072-0.8 10.224-1.296 15.472-1.296a16 16 0 0 1 0 32c-56.288 0-104.96 72.8-104.96 164.928V762.08a16 16 0 0 1-32 0v-59.312c0-81.872 34.496-152.928 84.976-182.368l-72.128-51.472H221.392l-72.128 51.472c45.328 26.448 77.664 86.48 83.792 157.76h518.976a16 16 0 0 1 0 32H234.24V762.08a16 16 0 0 1-32 0v-59.312c0-92.128-48.672-164.928-104.96-164.928a16 16 0 0 1 0-32c5.248 0 10.4 0.496 15.472 1.296l89.488-63.856V303.824c0-35.952-46-67.856-104.96-67.856a16 16 0 0 1 0-32c6.304 0 12.464 0.416 18.56 1.008v-235.744H80a16 16 0 0 1 0-32h846.72a16 16 0 0 1 0 32H904V205.44c7.424-0.896 14.976-1.472 22.72-1.472z m-692.48 127.344v105.616h555.52v-71.392H270.56a16 16 0 0 1 0-32h519.2v-29.712c0-22.368 9.808-42.56 26.144-58.896H208.096c16.336 16.336 26.144 36.544 26.144 58.896v27.488zM688 212.928v-243.696H336V212.928h352z m-540.16-1.936c2.256 0.656 4.464 1.376 6.672 2.096 0.288-0.016 0.544-0.176 0.848-0.176H304v-243.696H147.84V210.992z m724.16-241.76H720V212.928h148.304c0.384 0 0.688 0.192 1.072 0.208 0.88-0.288 1.744-0.624 2.64-0.912v-242.992zM805.76 814.768m-17.232 0a17.232 17.232 0 1 1 34.464 0 17.232 17.232 0 1 1-34.464 0ZM218.24 814.768m-17.232 0a17.232 17.232 0 1 1 34.464 0 17.232 17.232 0 1 1-34.464 0ZM935.52 505.84a16 16 0 0 1 0 32H80a16 16 0 0 1 0-32h855.52z"  horiz-adv-x="1024" />

    
    <glyph glyph-name="jingdian1" unicode="&#58882;" d="M512 384m-448 0a448 448 0 1 1 896 0 448 448 0 1 1-896 0ZM512 384m-448 0a448 448 0 1 1 896 0 448 448 0 1 1-896 0ZM885.1 136H138.9C219.1 15.4 356.3-64 512-64s292.9 79.4 373.1 200zM487 456h50v-320h-50zM552 456h-80c-5.5 0-10 4.5-10 10v20c0 5.5 4.5 10 10 10h80c5.5 0 10-4.5 10-10v-20c0-5.5-4.5-10-10-10zM667 456h50v-320h-50zM732 456h-80c-5.5 0-10 4.5-10 10v20c0 5.5 4.5 10 10 10h80c5.5 0 10-4.5 10-10v-20c0-5.5-4.5-10-10-10zM307 456h50v-320h-50zM372 456h-80c-5.5 0-10 4.5-10 10v20c0 5.5 4.5 10 10 10h80c5.5 0 10-4.5 10-10v-20c0-5.5-4.5-10-10-10zM512 684.2l-282.4-167c-5.3-3.1-3.1-11.2 3.1-11.2h564.8c6.1 0 8.3 8.1 3.1 11.2l-282.4 167c-2 1.1-4.3 1.1-6.2 0z"  horiz-adv-x="1024" />

    
    <glyph glyph-name="meishi11" unicode="&#58898;" d="M539.546537 879.576655L413.127185 879.362748l0.499118-291.555966c0-24.337924-34.011298-73.916936-87.321808-96.234621l-41.284153-17.255208 25.431228-440.293002a34.74809 34.74809 0 0 0-9.982351-24.385459 36.792095 36.792095 0 0 0-26.524534-11.194494 38.028006 38.028006 0 0 0-38.028006 38.028006l27.736677 438.296532-43.470764 16.637252c-54.380048 20.749031-90.459118 71.516418-90.459118 95.973179l-0.998235 291.864943-126.419351-0.427815 1.069537-291.674803c0-42.781506 19.014003-88.842928 53.595721-129.604196a299.304172 299.304172 0 0 1 74.986473-63.31663l-22.412756-353.803057v-3.99294a164.613729 164.613729 0 0 1 164.42359-164.42359 162.141909 162.141909 0 0 1 117.126257 49.460175 159.812694 159.812694 0 0 1 45.776211 116.674675v0.974467l-20.630193 357.154276a299.256637 299.256637 0 0 1 72.918701 64.005886c32.870457 40.238383 50.957527 85.563013 50.957528 127.655262zM207.989863 882.761501h126.443118V587.73548h-126.443118zM1021.670345 896a380.280056 380.280056 0 0 1-380.280056-380.280056v-394.540558h237.675035v-249.178507h142.605021V896z m-142.605021-632.215593h-95.070014V515.719944a237.461127 237.461127 0 0 0 95.070014 190.021191v-442.075565z"  horiz-adv-x="1024" />

    
    <glyph glyph-name="meishi2" unicode="&#58911;" d="M0 896v-1024h839.68V56.32h184.32V896H0zM839.68-128V56.32h184.32L839.68-128zM526.8352 650.8928l-68.0832-0.1152 0.2688-157.0176c0-13.1072-18.3168-39.808-47.0272-51.8272L389.76 432.64l13.696-237.12a18.7136 18.7136 0 0 0-5.376-13.1328 19.8144 19.8144 0 0 0-14.2848-6.0288 20.48 20.48 0 0 0-20.48 20.48l14.9376 236.0448-23.4112 8.96c-29.2864 11.1744-48.7168 38.5152-48.7168 51.6864l-0.5376 157.184-68.0832-0.2304 0.576-157.0816c0-23.04 10.24-47.8464 28.864-69.7984a161.1904 161.1904 0 0 1 40.384-34.0992l-12.0704-190.5408v-2.1504a88.6528 88.6528 0 0 1 88.5504-88.5504 87.3216 87.3216 0 0 1 63.0784 26.6368 86.0672 86.0672 0 0 1 24.6528 62.8352v0.5248l-11.1104 192.3456a161.1648 161.1648 0 0 1 39.2704 34.4704c17.7024 21.6704 27.4432 46.08 27.4432 68.7488zM348.2624 652.608h68.096v-158.8864h-68.096zM786.4832 659.7376a204.8 204.8 0 0 1-204.8-204.8v-212.48h128v-134.1952h76.8V659.7376z m-76.8-340.48h-51.2v135.68a127.8848 127.8848 0 0 0 51.2 102.336v-238.08z"  horiz-adv-x="1024" />

    
    <glyph glyph-name="youhui" unicode="&#58885;" d="M824.32 525.653333l-46.08 180.906667c-5.12 18.773333-18.773333 34.133333-37.546667 40.96L564.906667 807.253333c-18.773333 6.826667-42.666667 3.413333-58.026667-11.946666L69.973333 392.533333c-22.186667-20.48-22.186667-52.906667-3.413333-75.093333l228.693333-247.466667c20.48-22.186667 52.906667-22.186667 75.093334-3.413333L807.253333 469.333333c17.066667 15.36 22.186667 35.84 17.066667 56.32zM512 266.24L378.88 145.066667c-11.946667-10.24-29.013333-10.24-39.253333 1.706666L146.773333 356.693333c-10.24 10.24-10.24 29.013333 1.706667 39.253334l133.12 121.173333c11.946667 10.24 29.013333 10.24 39.253333-1.706667l192.853334-209.92c10.24-10.24 10.24-29.013333-1.706667-39.253333z m172.373333 310.613333c-23.893333-22.186667-61.44-20.48-83.626666 3.413334-22.186667 23.893333-20.48 61.44 3.413333 83.626666 23.893333 22.186667 61.44 20.48 83.626667-3.413333 22.186667-23.893333 20.48-61.44-3.413334-83.626667zM786.773333 721.92c-1.706667 1.706667-3.413333 1.706667-6.826666 1.706667-8.533333 15.36-20.48 25.6-37.546667 32.426666L568.32 815.786667c-23.893333 8.533333-49.493333 3.413333-66.56-13.653334L63.146667 399.36c-25.6-23.893333-27.306667-61.44-3.413334-87.04l228.693334-247.466667c11.946667-13.653333 29.013333-20.48 46.08-20.48 15.36 0 30.72 5.12 40.96 17.066667l436.906666 402.773333c5.12 3.413333 8.533333 8.533333 11.946667 13.653334h22.186667c39.253333 5.12 63.146667 30.72 71.68 51.2 29.013333 92.16-114.346667 182.613333-131.413334 192.853333z m15.36-245.76L365.226667 73.386667c-18.773333-17.066667-46.08-15.36-63.146667 3.413333L73.386667 322.56c-17.066667 18.773333-15.36 46.08 3.413333 63.146667L513.706667 790.186667c8.533333 8.533333 20.48 13.653333 34.133333 13.653333 5.12 0 10.24-1.706667 15.36-3.413333l175.786667-61.44c11.946667-3.413333 20.48-11.946667 27.306666-22.186667l51.2-192.853333c1.706667-3.413333 1.706667-8.533333 1.706667-11.946667-25.6 5.12-64.853333 23.893333-114.346667 73.386667 5.12 8.533333 8.533333 20.48 8.533334 30.72 0 18.773333-5.12 35.84-18.773334 49.493333-25.6 27.306667-68.266667 29.013333-97.28 3.413333-27.306667-25.6-29.013333-68.266667-3.413333-97.28 11.946667-13.653333 29.013333-20.48 47.786667-22.186666h3.413333c11.946667 0 23.893333 3.413333 35.84 10.24 46.08-46.08 87.04-73.386667 126.293333-81.92-3.413333 0-3.413333-1.706667-5.12-1.706667zM604.16 651.946667c0-1.706667 1.706667-1.706667 1.706667-3.413334 20.48-27.306667 40.96-52.906667 61.44-73.386666-6.826667-3.413333-15.36-6.826667-25.6-5.12-13.653333 0-25.6 6.826667-35.84 17.066666-17.066667 17.066667-17.066667 44.373333-1.706667 64.853334z m27.306667 17.066666c3.413333 1.706667 6.826667 3.413333 11.946666 3.413334 13.653333 0 27.306667-5.12 37.546667-17.066667 8.533333-10.24 13.653333-23.893333 13.653333-37.546667 0-6.826667-1.706667-13.653333-5.12-18.773333-17.066667 18.773333-35.84 40.96-58.026666 69.973333z m256-128c-5.12-10.24-18.773333-27.306667-44.373334-30.72h-8.533333c0 5.12 0 11.946667-1.706667 17.066667L795.306667 674.133333c44.373333-30.72 105.813333-87.04 92.16-133.12zM261.12 384h682.666667v-341.333333h-682.666667zM213.333333 54.613333H61.44c-6.826667 0-13.653333-5.12-13.653333-13.653333s5.12-13.653333 13.653333-13.653333h150.186667c6.826667 0 13.653333 5.12 13.653333 13.653333s-5.12 13.653333-11.946667 13.653333zM943.786667 397.653333h-682.666667c-6.826667 0-13.653333-5.12-13.653333-13.653333v-341.333333c0-6.826667 5.12-13.653333 13.653333-13.653334h682.666667c6.826667 0 13.653333 5.12 13.653333 13.653334V384c-1.706667 6.826667-6.826667 13.653333-13.653333 13.653333z m-13.653334-343.04H273.066667V372.053333h657.066666v-317.44zM356.693333 196.266667c3.413333-3.413333 8.533333-6.826667 13.653334-8.533334 5.12-1.706667 10.24-3.413333 15.36-3.413333 11.946667 0 22.186667 5.12 29.013333 13.653333l-10.24 11.946667c-1.706667-1.706667-5.12-5.12-6.826667-5.12-3.413333-1.706667-6.826667-1.706667-10.24-1.706667-6.826667 0-11.946667 1.706667-15.36 6.826667s-5.12 11.946667-5.12 22.186667c0 5.12 0 8.533333 1.706667 11.946666 1.706667 3.413333 3.413333 6.826667 5.12 8.533334 1.706667 1.706667 5.12 5.12 6.826667 5.12s5.12 1.706667 8.533333 1.706666 6.826667 0 8.533333-1.706666 5.12-3.413333 6.826667-5.12l10.24 13.653333c-3.413333 3.413333-6.826667 5.12-11.946667 8.533333-5.12 1.706667-10.24 3.413333-15.36 3.413334-5.12 0-10.24-1.706667-15.36-3.413334-5.12-1.706667-10.24-5.12-13.653333-8.533333s-6.826667-8.533333-8.533333-15.36c-1.706667-5.12-3.413333-11.946667-3.413334-20.48 0-6.826667 1.706667-13.653333 3.413334-20.48s3.413333-10.24 6.826666-13.653333zM430.08 196.266667c3.413333-3.413333 8.533333-6.826667 11.946667-8.533334s10.24-3.413333 17.066666-3.413333 11.946667 1.706667 17.066667 3.413333c5.12 1.706667 8.533333 5.12 11.946667 8.533334 3.413333 3.413333 6.826667 8.533333 8.533333 15.36 1.706667 5.12 3.413333 11.946667 3.413333 18.773333 0 6.826667-1.706667 13.653333-3.413333 18.773333-1.706667 5.12-5.12 10.24-8.533333 13.653334-3.413333 3.413333-8.533333 6.826667-11.946667 8.533333-5.12 1.706667-10.24 3.413333-17.066667 3.413333s-11.946667-1.706667-17.066666-3.413333-8.533333-5.12-11.946667-8.533333c-3.413333-3.413333-6.826667-8.533333-8.533333-13.653334-1.706667-5.12-3.413333-11.946667-3.413334-18.773333s1.706667-13.653333 3.413334-18.773333 5.12-11.946667 8.533333-15.36z m15.36 54.613333c3.413333 5.12 8.533333 6.826667 13.653333 6.826667s10.24-1.706667 13.653334-6.826667c3.413333-5.12 5.12-11.946667 5.12-20.48s-1.706667-15.36-5.12-22.186667-8.533333-8.533333-13.653334-8.533333-10.24 3.413333-13.653333 8.533333-5.12 11.946667-5.12 22.186667c0 8.533333 1.706667 15.36 5.12 20.48zM551.253333 184.32c11.946667 0 20.48 3.413333 25.6 10.24s8.533333 17.066667 8.533334 32.426667v47.786666h-18.773334v-49.493333c0-8.533333-1.706667-15.36-3.413333-18.773333-3.413333-3.413333-6.826667-5.12-11.946667-5.12s-8.533333 1.706667-11.946666 5.12c-3.413333 3.413333-3.413333 10.24-3.413334 18.773333v49.493333h-20.48v-47.786666c0-15.36 3.413333-25.6 8.533334-32.426667 6.826667-6.826667 17.066667-10.24 27.306666-10.24zM628.053333 215.04h10.24c5.12 0 8.533333 0 13.653334 1.706667s8.533333 3.413333 10.24 5.12c3.413333 1.706667 5.12 5.12 6.826666 10.24 1.706667 3.413333 3.413333 8.533333 3.413334 13.653333 0 5.12-1.706667 10.24-3.413334 13.653333s-5.12 6.826667-6.826666 8.533334c-3.413333 1.706667-6.826667 3.413333-11.946667 5.12-5.12 1.706667-8.533333 1.706667-13.653333 1.706666h-30.72v-88.746666h20.48v29.013333z m0 42.666667h8.533334c5.12 0 10.24-1.706667 11.946666-3.413334 3.413333-1.706667 5.12-5.12 5.12-10.24 0-10.24-5.12-13.653333-17.066666-13.653333h-10.24v27.306667zM696.32 196.266667c3.413333-3.413333 8.533333-6.826667 11.946667-8.533334 5.12-1.706667 10.24-3.413333 17.066666-3.413333s11.946667 1.706667 17.066667 3.413333 8.533333 5.12 11.946667 8.533334 6.826667 8.533333 8.533333 15.36c1.706667 5.12 3.413333 11.946667 3.413333 18.773333 0 6.826667-1.706667 13.653333-3.413333 18.773333-1.706667 5.12-5.12 10.24-8.533333 13.653334-3.413333 3.413333-8.533333 6.826667-11.946667 8.533333s-10.24 3.413333-17.066667 3.413333-11.946667-1.706667-17.066666-3.413333c-5.12-1.706667-8.533333-5.12-11.946667-8.533333-3.413333-3.413333-6.826667-8.533333-8.533333-13.653334-1.706667-5.12-3.413333-11.946667-3.413334-18.773333s1.706667-13.653333 3.413334-18.773333c1.706667-6.826667 5.12-11.946667 8.533333-15.36z m13.653333 54.613333c3.413333 5.12 8.533333 6.826667 13.653334 6.826667s10.24-1.706667 13.653333-6.826667c3.413333-5.12 5.12-11.946667 5.12-20.48s-1.706667-15.36-5.12-22.186667-8.533333-8.533333-13.653333-8.533333-10.24 3.413333-13.653334 8.533333-5.12 11.946667-5.12 22.186667c0 8.533333 1.706667 15.36 5.12 20.48zM802.133333 216.746667c0 5.12 0 10.24-1.706666 17.066666 0 5.12-1.706667 10.24-1.706667 15.36l8.533333-18.773333 23.893334-44.373333h20.48v88.746666h-18.773334v-30.72c0-5.12 0-10.24 1.706667-17.066666 0-5.12 1.706667-11.946667 1.706667-15.36l-10.24 18.773333-23.893334 44.373333h-20.48v-88.746666H802.133333v30.72zM356.693333 110.933333c0-6.826667 5.12-11.946667 10.24-11.946666h535.893334c6.826667 0 11.946667 5.12 11.946666 11.946666s-5.12 11.946667-11.946666 11.946667H366.933333c-5.12-1.706667-10.24-6.826667-10.24-11.946667zM308.906667 98.986667h20.48c6.826667 0 10.24 5.12 10.24 11.946666s-5.12 11.946667-10.24 11.946667h-20.48c-6.826667 0-10.24-5.12-10.24-11.946667s5.12-11.946667 10.24-11.946666z"  horiz-adv-x="1024" />

    
    <glyph glyph-name="wenhuatiyuheyuleye" unicode="&#58950;" d="M935.275355-24.179613000000018c-46.773677 0-78.748903 38.978065-95.628387 66.85729a486.036645 486.036645 0 0 1 143.326967 345.616517C982.973935 657.771355 764.366452 876.378839 494.88929 876.378839 225.742452 876.048516 7.134968 657.771355 7.134968 388.294194c0-269.444129 218.607484-488.051613 488.051613-488.051613 89.847742 0 173.848774 24.113548 245.925161 66.56 47.368258-65.965419 153.467871-92.424258 153.467871-92.424258h138.669419v101.442064h-97.973677zM228.913548 255.17419400000006a133.12 133.12 0 1 0 0 266.24 133.12 133.12 0 0 0 133.12-133.12 132.921806 132.921806 0 0 0-133.12-133.12zM495.483871-11.396128999999974a133.12 133.12 0 1 0 0 266.273032 133.12 133.12 0 1 0 0-266.24z m-70.35871 399.426064c0 38.945032 31.380645 70.35871 70.35871 70.35871s70.35871-31.413677 70.35871-70.35871c0-38.978065-31.380645-70.35871-70.35871-70.358709s-70.35871 31.710968-70.35871 70.358709zM495.483871 531.918452a133.12 133.12 0 1 0 0 266.24 133.12 133.12 0 1 0 0-266.24z m143.888516-143.888517a133.12 133.12 0 1 0 266.24 0 133.12 133.12 0 1 0-266.24 0z"  horiz-adv-x="1057" />

    
    <glyph glyph-name="tehuixixian" unicode="&#58924;" d="M877.36-92.96H150c-42.56 0-77.04 34.48-77.04 77.04V566.24c0 42.56 34.48 77.04 77.04 77.04h727.36c42.56 0 77.04-34.48 77.04-77.04V-16c0-42.48-34.48-76.96-77.04-76.96zM877.36-100.96H150c-46.88 0-85.04 38.16-85.04 85.04V566.24c0 46.88 38.16 85.04 85.04 85.04h727.36c46.88 0 85.04-38.16 85.04-85.04V-16c0-46.88-38.16-84.96-85.04-84.96zM150 635.2c-38.08 0-69.04-30.96-69.04-69.04V-16c0-38.08 30.96-69.04 69.04-69.04h727.36c38.08 0 69.04 30.96 69.04 69.04V566.24c0 38.08-30.96 69.04-69.04 69.04H150zM518.88 684.72S249.28 959.52 181.92 778.08c-25.92-108.88 46.64-93.36 46.64-93.36h290.32zM219.68 675.92c-9.76 0-24.56 2.32-35.92 13.92-16.56 16.96-19.84 47.2-9.68 90l0.32 0.96c13.6 36.56 36.16 58.48 67.12 65.12C348.16 868.64 517.44 697.6 524.64 690.32l13.36-13.6H229.28c-1.6-0.32-5.04-0.8-9.6-0.8zM189.6 775.68c-8.56-36.16-6.64-62 5.52-74.56 12.08-12.48 31.6-8.64 31.84-8.64l1.68 0.16H499.2c-42.72 40.32-172.96 155.04-254.32 137.6-25.52-5.44-43.6-23.28-55.28-54.56zM508.08 684.72s269.6 274.8 336.96 93.36c25.92-108.88-46.64-93.36-46.64-93.36H508.08zM807.28 675.92c-4.56 0-8 0.48-9.6 0.8H489.04l13.36 13.6c7.2 7.28 176.4 178.24 283.12 155.6 30.96-6.56 53.52-28.48 67.12-65.12l0.32-0.96c10.16-42.72 6.96-73.04-9.68-90-11.44-11.6-26.16-13.92-36-13.92z m-279.44 16.8l272.24-0.16c0.16 0 19.68-3.84 31.76 8.64 12.16 12.56 14.08 38.32 5.52 74.56-11.76 31.28-29.84 49.12-55.28 54.56-81.44 17.36-211.6-97.36-254.24-137.6zM78.24 449.04c0.24-1.52 0.48-3.04 0.48-4.72v-57.44h870.48v62.24H78.24zM482.64 464.16h62.24v-549.12h-62.24zM967.44 451.44H60c-24.32 0-44 19.68-44 44V647.92c0 23.2 18.8 42 42 42h911.44c23.2 0 42-18.8 42-42v-152.48c0-24.32-19.68-44-44-44zM967.44 443.44H60c-28.64 0-52 23.36-52 52V647.92c0 27.6 22.4 50 50 50h911.44c27.6 0 50-22.4 50-50v-152.48c0-28.72-23.36-52-52-52zM58 681.92A34.08 34.08 0 0 1 24 647.92v-152.48c0-19.84 16.16-36 36-36h907.44c19.84 0 36 16.16 36 36V647.92a34.08 34.08 0 0 1-34 34H58zM1003.44 625.28H18.4v36.24c0 14.32 11.68 26 26 26h933.04c14.32 0 26-11.68 26-26v-36.24zM482.64 687.52h62.24v-228.08h-62.24zM967.44 443.44H60c-28.64 0-52 23.36-52 52V647.92c0 27.6 22.4 50 50 50h911.44c27.6 0 50-22.4 50-50v-152.48c0-28.72-23.36-52-52-52zM58 681.92A34.08 34.08 0 0 1 24 647.92v-152.48c0-19.84 16.16-36 36-36h907.44c19.84 0 36 16.16 36 36V647.92a34.08 34.08 0 0 1-34 34H58zM65.04 446.24h16v-72.56h-16zM954.4 452.48v-348.24M946.4 452.48h16v-348.24h-16z"  horiz-adv-x="1024" />

    
    <glyph glyph-name="ziyuan2" unicode="&#58881;" d="M927.884335-17.221818h-256V590.661818h170.821818a85.410909 85.410909 0 0 0 85.178182-85.178182v-522.705454zM512.000698 622.778182H256.000698a30.254545 30.254545 0 0 0-31.883636 31.883636A30.254545 30.254545 0 0 0 256.000698 686.545455h256a30.254545 30.254545 0 0 0 31.883637-32.116364A30.254545 30.254545 0 0 0 512.000698 622.778182z m0-128H256.000698a30.254545 30.254545 0 0 0-31.883636 31.883636A30.254545 30.254545 0 0 0 256.000698 558.778182h256a30.254545 30.254545 0 0 0 31.883637-32.116364A30.254545 30.254545 0 0 0 512.000698 494.778182zM512.000698 58.181818H256.000698V346.530909a64.232727 64.232727 0 0 0 64 64h128A64.232727 64.232727 0 0 0 512.000698 346.530909zM981.411607 68.189091h-309.527272V721.221818a64 64 0 0 1-64 64H160.117062a64 64 0 0 1-64-64v-653.032727h-53.527273A42.589091 42.589091 0 0 1 0.000698 25.367273a42.589091 42.589091 0 0 1 42.589091-42.589091h938.821818A42.589091 42.589091 0 0 1 1024.000698 25.367273a42.589091 42.589091 0 0 1-42.589091 42.821818zM512.000698 58.181818H256.000698V346.530909a64.232727 64.232727 0 0 0 64 64h128A64.232727 64.232727 0 0 0 512.000698 346.530909z m0 436.363637H256.000698a30.254545 30.254545 0 0 0-31.883636 31.883636A30.254545 30.254545 0 0 0 256.000698 558.778182h256a30.254545 30.254545 0 0 0 31.883637-32.116364A30.254545 30.254545 0 0 0 512.000698 494.778182z m0 128H256.000698a30.254545 30.254545 0 0 0-31.883636 31.883636A30.254545 30.254545 0 0 0 256.000698 686.545455h256a30.254545 30.254545 0 0 0 31.883637-32.116364A30.254545 30.254545 0 0 0 512.000698 622.778182z"  horiz-adv-x="1024" />

    
    <glyph glyph-name="gengduomore12" unicode="&#58912;" d="M1024 384c0 282.763636-229.236364 512-512 512C229.236364 896 0 666.763636 0 384c0-282.763636 229.236364-512 512-512C794.763636-128 1024 101.236364 1024 384zM791.272727 477.090909c51.386182 0 93.090909-41.704727 93.090909-93.090909s-41.704727-93.090909-93.090909-93.090909c-51.432727 0-93.090909 41.658182-93.090909 93.090909S739.84 477.090909 791.272727 477.090909zM232.727273 290.909091c-51.432727 0-93.090909 41.658182-93.090909 93.090909s41.658182 93.090909 93.090909 93.090909c51.386182 0 93.090909-41.704727 93.090909-93.090909S284.113455 290.909091 232.727273 290.909091zM418.909091 384c0 51.432727 41.658182 93.090909 93.090909 93.090909 51.386182 0 93.090909-41.704727 93.090909-93.090909s-41.704727-93.090909-93.090909-93.090909C460.567273 290.909091 418.909091 332.567273 418.909091 384z"  horiz-adv-x="1024" />

    
    <glyph glyph-name="dibudaohanglan-" unicode="&#58920;" d="M633.018182-100.07272699999999v165.236363H384C172.218182 67.49090899999999 0 239.70909099999994 0 451.490909S172.218182 835.490909 384 835.490909h256C851.781818 835.490909 1024 663.272727 1024 451.490909c0-97.745455-37.236364-193.163636-104.727273-262.981818L672.581818-58.18181800000002l-39.563636-41.890909z m46.545454 214.109091V11.636363999999958c67.490909 67.490909 200.145455 200.145455 204.8 207.127272 60.509091 62.836364 93.090909 144.290909 93.090909 232.727273 0 186.181818-151.272727 337.454545-337.454545 337.454546h-256C197.818182 788.945455 46.545455 637.672727 46.545455 451.490909s151.272727-337.454545 337.454545-337.454545H679.563636zM260.654545 460.8m-37.236363 0a37.236364 37.236364 0 1 1 74.472727 0 37.236364 37.236364 0 1 1-74.472727 0ZM512 460.8m-37.236364 0a37.236364 37.236364 0 1 1 74.472728 0 37.236364 37.236364 0 1 1-74.472728 0ZM763.345455 460.8m-37.236364 0a37.236364 37.236364 0 1 1 74.472727 0 37.236364 37.236364 0 1 1-74.472727 0Z"  horiz-adv-x="1024" />

    
    <glyph glyph-name="gengduo" unicode="&#58886;" d="M491.592 404.408H15.36V764.984A115.789 115.789 0 0 0 131.016 880.64h360.576v-476.232zM83.389 472.443h340.168V812.61H131.016A47.683 47.683 0 0 1 83.4 764.995v-292.552z m408.203-585.083H131.016A115.794 115.794 0 0 0 15.36 3.016V363.592h476.232v-476.232zM83.389 295.557v-292.541a47.683 47.683 0 0 1 47.616-47.616h292.552V295.557H83.39z m925.251 108.851H532.408V880.64h360.576a115.789 115.789 0 0 0 115.656-115.656v-360.576z m-408.197 68.035H940.61V764.984A47.683 47.683 0 0 1 892.995 812.6H600.443v-340.157zM890.665-110.515h-361.18v477.03h477.03v-361.18a115.994 115.994 0 0 0-115.85-115.85z m-293.033 68.147h293.033a47.76 47.76 0 0 1 47.703 47.703V298.368H597.632v-340.736z"  horiz-adv-x="1024" />

    
    <glyph glyph-name="arrow-left" unicode="&#58894;" d="M340.154 348.727l421.05 421.05c9.076 9.076 9.076 23.831 0 32.908-9.076 9.076-23.831 9.076-32.908 0l-437.481-437.481c-9.076-9.076-9.076-23.831 0-32.908l437.481-437.481c9.076-9.076 23.831-9.076 32.908 0 9.076 9.076 9.076 23.831 0 32.908l-421.05 421.004z"  horiz-adv-x="1024" />

    
    <glyph glyph-name="search" unicode="&#58902;" d="M882.6369-8.308991 730.351542 187.807642c7.884574 6.656607 15.529695 13.647835 22.890336 21.0095 33.348526 33.350572 59.533908 72.194252 77.8296 115.453499 18.948561 44.803415 28.555359 92.378967 28.555359 141.40659 0 49.021483-9.607822 96.593965-28.556383 141.393287-18.295692 43.256176-44.481074 82.09781-77.828576 115.446335S681.053766 782.051785 637.797589 800.347476C592.99929 819.296037 545.429879 828.903859 496.409418 828.903859c-49.021483 0-96.593965-9.607822-141.394311-28.556383-43.256176-18.295692-82.098833-44.482097-115.446335-77.830623-33.348526-33.347502-59.533908-72.189136-77.830623-115.446335-18.948561-44.800345-28.556383-92.371804-28.556383-141.393287 0-49.027623 9.607822-96.603175 28.556383-141.40659 18.295692-43.259246 44.481074-82.10395 77.8296-115.453499 33.347502-33.349549 72.189136-59.536978 115.446335-77.833693 44.800345-18.948561 92.371804-28.556383 141.394311-28.556383 49.019437 0 96.590895 9.608845 141.389194 28.557406 12.920264 5.465478 25.436322 11.649318 37.541011 18.502399l154.415882-198.860117c11.339256-14.603603 31.987528-17.545608 46.119387-6.572696l1.705851 1.325182C891.713626-43.6458 893.977179-22.912593 882.6369-8.308991zM496.409418 163.826462c-166.428473 0-301.82928 135.410016-301.82928 301.851792 0 166.428473 135.399783 301.828256 301.82928 301.828256 166.423357 0 301.818023-135.399783 301.818023-301.828256C798.228465 299.236478 662.832775 163.826462 496.409418 163.826462z"  horiz-adv-x="1024" />

    
    <glyph glyph-name="xiaoche" unicode="&#58951;" d="M854.4 579.2h-67.2c-3.2 0-6.4 0-9.6-3.2l-28.8 112c-9.6 64-44.8 92.8-92.8 92.8h-284.8C316.8 780.8 288 739.2 278.4 688l-32-112s-3.2 3.2-6.4 3.2H169.6c-9.6 0-19.2-9.6-19.2-22.4v-19.2c3.2-16 9.6-25.6 19.2-25.6l25.6-6.4c-9.6-19.2-12.8-41.6-12.8-67.2l-9.6-131.2V128c0-22.4 16-41.6 32-41.6H256c19.2 0 32 19.2 32 41.6v51.2h438.4V128c0-22.4 16-41.6 32-41.6h51.2c19.2 0 32 19.2 32 41.6v160 6.4 12.8l-9.6 131.2c0 25.6-3.2 48-12.8 67.2l25.6 6.4c9.6 0 19.2 9.6 19.2 22.4v19.2c6.4 12.8 0 25.6-9.6 25.6zM300.8 601.6l22.4 73.6v3.2c3.2 16 6.4 16 16 28.8h348.8c6.4-12.8 12.8-16 12.8-28.8l22.4-73.6 9.6-41.6c-3.2-28.8-32-54.4-54.4-54.4H348.8c-25.6 0-54.4 22.4-54.4 54.4l6.4 38.4z m6.4-323.2c-28.8 0-54.4 22.4-54.4 54.4 0 28.8 25.6 54.4 54.4 54.4 28.8 0 54.4-22.4 54.4-54.4 0-28.8-22.4-54.4-54.4-54.4z m313.6 25.6c0-9.6-6.4-19.2-16-19.2H416c-9.6 0-16 9.6-16 19.2v51.2c0 9.6 6.4 19.2 16 19.2h188.8c9.6 0 16-9.6 16-19.2v-51.2z m92.8-25.6c-28.8 0-54.4 22.4-54.4 54.4 0 28.8 25.6 54.4 54.4 54.4 28.8 0 54.4-22.4 54.4-54.4 0-28.8-25.6-54.4-54.4-54.4z m0 0"  horiz-adv-x="1024" />

    
    <glyph glyph-name="fanhui" unicode="&#58978;" d="M648 588.8H217.6l128 128c12.8 12.8 12.8 32 0 44.8-12.8 12.8-32 12.8-44.8 0L118.4 580.8c-6.4-6.4-9.6-14.4-9.6-22.4s3.2-16 9.6-22.4l180.8-180.8c12.8-12.8 32-12.8 44.8 0 12.8 12.8 12.8 32 0 44.8L219.2 524.8H648c120 0 216-96 216-216s-96-216-216-216H320c-17.6 0-32-14.4-32-32s14.4-32 32-32h328c155.2 0 280 124.8 280 280s-124.8 280-280 280z"  horiz-adv-x="1024" />

    
    <glyph glyph-name="sang" unicode="&#58959;" d="M1160.1471 690.330976H56.486563c-30.415842 0-56.486563 24.622348-56.486563 56.486563V839.513437C0 869.929279 24.622348 896 56.486563 896h1103.660537C1190.562942 896 1216.633663 871.377652 1216.633663 839.513437v-92.695898c0-31.864215-24.622348-56.486563-56.486563-56.486563zM1160.1471 280.44130099999995H56.486563c-30.415842 0-56.486563 24.622348-56.486563 56.486563v92.695898c0 30.415842 24.622348 56.486563 56.486563 56.486563h1103.660537c30.415842 0 56.486563-24.622348 56.486563-56.486563v-92.695898c0-30.415842-24.622348-56.486563-56.486563-56.486563zM1160.1471-128H56.486563C26.070721-128 0-103.37765200000001 0-71.51343699999995v92.695898c0 30.415842 24.622348 56.486563 56.486563 56.486563h1103.660537c30.415842 0 56.486563-24.622348 56.486563-56.486563v-92.695898c0-31.864215-24.622348-56.486563-56.486563-56.486563z"  horiz-adv-x="1216" />

    
    <glyph glyph-name="wode" unicode="&#58887;" d="M512 826.181818a442.181818 442.181818 0 1 1 442.181818-442.181818A442.181818 442.181818 0 0 1 512 826.181818z m0-60.276363A381.905455 381.905455 0 0 0 893.905455 384a378.181818 378.181818 0 0 0-59.345455-203.636364A440.087273 440.087273 0 0 1 593.92 314.181818a180.829091 180.829091 0 1 1-162.909091 0 442.181818 442.181818 0 0 1-241.570909-133.818182A378.181818 378.181818 0 0 0 130.094545 384 381.905455 381.905455 0 0 0 512 765.905455z m0-422.167273a130.792727 130.792727 0 1 0 130.56 130.792727A130.792727 130.792727 0 0 0 512 343.738182z m0-341.643637a381.44 381.44 0 0 0-285.789091 129.163637 380.276364 380.276364 0 0 0 571.578182 0A380.741818 380.741818 0 0 0 512 2.094545z"  horiz-adv-x="1024" />

    
    <glyph glyph-name="shouye" unicode="&#58969;" d="M770.133333-21.33333300000004h-140.8c-25.6 0-44.8 19.2-44.8 44.8V277.33333300000004s0 2.133333-2.133333 2.133334h-140.8c-2.133333 0-2.133333 0-2.133333-2.133334v-253.866666c0-25.6-19.2-44.8-44.8-44.8h-140.8c-25.6 0-44.8 19.2-44.8 44.8V405.333333s0 2.133333-2.133334 2.133334H151.466667c-19.2 0-36.266667 10.666667-42.666667 29.866666-6.4 17.066667-2.133333 36.266667 12.8 49.066667L482.133333 778.666667c17.066667 14.933333 40.533333 14.933333 57.6 0l360.533334-294.4c14.933333-12.8 19.2-32 12.8-49.066667-6.4-17.066667-23.466667-29.866667-42.666667-29.866667h-53.333333c-2.133333 0-2.133333 0-2.133334-2.133333V21.33333300000004c0-23.466667-19.2-42.666667-44.8-42.666666zM441.6 322.133333h140.8c25.6 0 44.8-19.2 44.8-44.8v-253.866666s0-2.133333 2.133333-2.133334h140.8c2.133333 0 2.133333 0 2.133334 2.133334V405.333333c0 25.6 19.2 44.8 44.8 44.8h53.333333s2.133333 0 2.133333 2.133334L514.133333 746.666667h-4.266666L149.333333 452.266667c0-2.133333 2.133333-2.133333 2.133334-2.133334h53.333333c25.6 0 44.8-19.2 44.8-44.8v-381.866666s0-2.133333 2.133333-2.133334h140.8c2.133333 0 2.133333 0 2.133334 2.133334V277.33333300000004c2.133333 25.6 21.333333 44.8 46.933333 44.8z"  horiz-adv-x="1024" />

    


  </font>
</defs>
</svg>
